<svg height="220" viewBox="0 0 300 220" width="300" xmlns="http://www.w3.org/2000/svg" xmlns:xlink="http://www.w3.org/1999/xlink"><mask id="a" fill="#fff"><path d="m1.42798857.29087464c-.6164998 0-1.1158775.49937771-1.1158775 1.1158775v.78059943c0 .6164998.4993777 1.1158775 1.1158775 1.1158775h24.91418533c.6158563 0 1.115234-.4993777 1.115234-1.1158775v-.78059943c0-.61649979-.4993777-1.1158775-1.115234-1.1158775z" fill="#fff" fill-rule="evenodd"/></mask><mask id="b" fill="#fff"><path d="m1.42798857.06306574c-.6164998 0-1.1158775.50002123-1.1158775 1.11523397v.78188649c0 .61585627.4993777 1.11523397 1.1158775 1.11523397h24.91418533c.6158563 0 1.115234-.4993777 1.115234-1.11523397v-.78188649c0-.61521274-.4993777-1.11523397-1.115234-1.11523397z" fill="#fff" fill-rule="evenodd"/></mask><mask id="c" fill="#fff"><path d="m1.42798857.09845978c-.6164998 0-1.1158775.50002123-1.1158775 1.1158775v.78124296c0 .61521274.4993777 1.11523397 1.1158775 1.11523397h24.91418533c.6158563 0 1.115234-.50002123 1.115234-1.11523397v-.78124296c0-.61585627-.4993777-1.1158775-1.115234-1.1158775z" fill="#fff" fill-rule="evenodd"/></mask><mask id="d" fill="#fff"><path d="m1.42798857.13385382c-.6164998 0-1.1158775.4993777-1.1158775 1.11523397v.78124296c0 .61585627.4993777 1.1158775 1.1158775 1.1158775h24.91418533c.6158563 0 1.115234-.50002123 1.115234-1.1158775v-.78124296c0-.61585627-.4993777-1.11523397-1.115234-1.11523397z" fill="#fff" fill-rule="evenodd"/></mask><mask id="e" fill="#fff"><path d="m1.42798857.16281258c-.6164998 0-1.1158775.4993777-1.1158775 1.11523397v.78124296c0 .61585626.4993777 1.1158775 1.1158775 1.1158775h15.98973953c.6158562 0 1.1152339-.50002124 1.1152339-1.1158775v-.78124296c0-.61585627-.4993777-1.11523397-1.1152339-1.11523397z" fill="#fff" fill-rule="evenodd"/></mask><mask id="f" fill="#fff"><path d="m1.192147.19627603c-.6164998 0-1.1158775.49937771-1.1158775 1.11523397v.78124296c0 .61585627.4993777 1.11523397 1.1158775 1.11523397h15.9897395c.6158563 0 1.115234-.4993777 1.115234-1.11523397v-.78124296c0-.61585626-.4993777-1.11523397-1.115234-1.11523397z" fill="#fff" fill-rule="evenodd"/></mask><g fill="none" fill-rule="evenodd"><g transform="translate(0 .532198)"><path d="m141.70029 19.749616c52.769294 19.9493671 30.889343 72.7186607 114.49714 69.0595606 63.117223-2.7626655 53.034427 94.9885894-.746492 114.0859254-93.157753 33.079912-229.4254442 16.537382-252.1091616-72.458675-18.2877779-71.7514382 39.9733834-147.8814406 138.3585136-110.686811" fill="#f2ddbb" fill-opacity=".5"/><path d="m215.124965 67.605831h15.113255v-4.2987669h-15.113255zm0-13.7566975h15.113255v-4.2987668h-15.113255zm0-6.8786705h15.113255v-4.2987668h-15.113255zm0-6.8786704h15.113255v-4.2987669h-15.113255zm17.502031 34.3927088h15.113254v-4.2987668h-15.113254zm0-27.5140384h15.113254v-4.2987668h-15.113254zm0-6.8786704h15.113254v-4.2987669h-15.113254zm3.10824-31.38292857h15.113254v-4.29876685h-15.113254zm14.39379 31.38357207h15.113254v-4.2987668h-15.113254zm7.556305-31.38357207h7.556949v-4.29876685h-7.556949zm11.05388 51.15854307h15.113254v-4.2987668h-15.113254zm0-6.0182736h15.113254v-4.2987668h-15.113254zm-18.610185-6.8786705h15.113254v-4.2987668h-15.113254zm5.98674 156.128252c19.569042-9.062805 33.074764-23.333038 39.255207-48.908126 1.99558-8.257108 3.087003-15.653818 3.453814-24.755878v-100.0898355h-10.670337v-15.9067244h-10.421292v-13.32682076h-46.6635v12.89694406h-11.006259v17.1963544h-11.568702v185.0181532c18.066404-2.164185 34.659129-6.121239 47.621069-12.124067z" fill="#f2ddbb"/><path d="m296.632802 154.989915c2.419665-10.013939 3.861168-19.305839 2.326997-31.63133-7.092965.033463-17.041264 1.620403-23.071121 9.222399-10.16195 12.810711-17.606282 7.591699-25.033881 10.912947-7.4276 3.321248-8.530607 1.423484-7.030544 10.438024 1.500708 9.015183 1.471105 10.438667-19.865064 9.015183-21.33617-1.423484-38.417333 4.269808-33.672601 13.759272 4.744731 9.489463 3.321247 9.015183-10.912304 12.336431-14.234195 3.321248-17.081163 9.963744-17.081163 9.963744l102.806811-.256768c15.385466-9.150968 26.21025-21.73194 31.53287-43.759902" fill="#f6f1e5"/><path d="m224.759029 79.8405847s-30.271555 51.5845583-39.846608 54.9823863c-9.575696 3.397828-42.627293 7.722336-42.627293 7.722336s1.544467 3.706721 1.544467 7.413442v3.706721l53.129026.308893s30.271556-25.638154 32.742703-23.167007c2.471148 2.471148 5.868975 20.386967 4.015615 25.947048-1.853361 5.560082-6.795656 8.031229-3.397828 9.88459 3.397828 1.85336 48.187375 13.900204 51.584559 10.502376 3.398471-3.397827 3.707364-60.851361-6.795012-80.3116468-10.502377-19.4602859-21.004753-24.7114741-36.758318-24.7114741-9.348531 0-13.591311 7.7223356-13.591311 7.7223356" fill="#6bb994"/><path d="m144.601829 144.862265s-.92668-.926681-7.413442-3.706721c-6.486762-2.780041-4.633402-5.251189-10.81127-4.942295-6.177225.308893-15.752921 1.544467-14.826241 3.706721s.025098 2.014242.92668 2.162254c4.06581.667982 8.957266-2.780041 11.11952 0s-1.544467 1.544467 3.398471 5.251188c4.941652 3.706721 5.868332 5.560082 9.266803 5.560082 3.397184 0 9.266159.308893 9.266159.308893z" fill="#b78c58"/><path d="m221.257658 95.9533024c3.397184-1.8237583 1.929297-11.6246893-.427946-16.1570567-1.041228-2.0026591-3.171949-5.8625399-6.320732-5.1359968-3.195116.736196-5.000856.4865072-6.853573-1.7304467-.905443-1.0830576-4.184862-5.7923953-4.269164-5.9494161-1.332747.6428845-4.101204.9961813-5.161094-.3989873-.651251-.8584663.334634-1.7716325.656398-4.8985349.534772-5.1932708-.10039-5.8638269-.806984-8.040882-1.666094-5.1314921-3.562571-9.0499339-2.410656-13.9529735 2.207301-9.4013001 14.310132-17.5934112 24.735928-14.2386999 8.947613 2.8785006 14.536654 10.0570552 18.318024 18.4267799 2.303187 5.0980286 1.866875 8.223644 5.579388 15.6197109 1.516795 3.0213639 2.508472 5.8606093 4.703545 8.4224941 3.047749 3.5561356 7.213306 10.7153843 9.982406 12.0120931 0 0-11.932939 19.5741903-37.72554 16.0219159" fill="#cb9e5f"/><path d="m239.426641 49.4354969s5.905012 20.1469302 14.882228 25.8222034" stroke="#906b32" stroke-linecap="round" stroke-linejoin="round" stroke-width="3.709"/><path d="m199.106524 65.8703004c.620361-1.9119216.763868-2.8173655.926681-3.8676031" stroke="#906b32" stroke-linecap="round" stroke-linejoin="round" stroke-width="3.709"/><path d="m200.488501 55.268241 17.431885-7.894801" stroke="#1a7558" stroke-linecap="round" stroke-linejoin="round" stroke-width="3.371"/><path d="m197.445901 50.887039 3.888196 7.808568" stroke="#1a7558" stroke-linecap="round" stroke-linejoin="round" stroke-width="3.371"/><path d="m206.061582 71.5149416c-1.071474-1.0232095-2.379123-1.8289065-2.689304-3.2671915-.193058-.8938603.271569-1.85143.897722-2.6062883 1.687974-2.036766 4.690675-3.0297297 7.193999-2.3797664 1.962117.5090306 3.806468 1.9247921 5.827789 1.3353205 1.836629-.5354152 3.007207-2.6146541 2.720193-4.359902-1.205328-7.3407235-3.633359-15.104245-5.640523-19.729924-.335278-.7722336-1.061821-1.2999265-1.894546-1.3842287-4.765968-.4845766-9.62203 1.5380319-14.53601.6802091-2.720836-.4742801-5.392764-1.8121748-7.126429-3.9699241-1.321162-1.6429269-2.18542-3.5072274-2.04127-4.8856643.299884-2.8656301 3.423569-4.301341 6.09614-3.5027228 2.325067.6950102 4.720921 4.3714855 6.239004 2.0335484 1.328885-2.0470625-3.973785-5.7570012.24261-7.4037893 1.830194-.7149596 3.960915 1.2979959 6.489336 1.4479379 3.242737.1917714 6.093566-.8172805 9.460505-.4903683 8.536398.8288641 12.736705 4.6861707 16.728509 10.2642712 2.491097 3.4814863 5.027884 9.5943585 6.444933 15.3030951.595263 2.3984288 1.415118 4.579345 1.767128 6.0446582.464627 1.9389498-4.123727 1.6030282-7.612293-.0810845-4.43069-2.1384434-8.035733-6.419835-7.518337-7.1161323.998756-1.3417558.07658-2.8894406-.731691-3.8753254-.980093-1.1950315-2.207945-2.1577493-3.734393-1.7452479-1.92994.5206141-1.403535 2.4106558-.794757 4.1571907 2.126216 6.0980711 3.703503 13.8416431 3.902997 17.6243005.343644 6.522156-3.371443 9.5576775-4.848983 10.3247628-2.395211 1.243296-4.941651 2.2002221-7.552444 2.8386019-.898365.219443-1.842421.4015614-2.712471.1988501-3.018146-.7033761-2.431892-3.4061935-4.577414-5.4551866" fill="#484444"/><path d="m193.411238 31.6768921c1.452442 3.325109 5.213863 5.2486141 8.474619 3.1211107" stroke="#906b32" stroke-linecap="round" stroke-linejoin="round" stroke-width="3.709"/><path d="m202.93159 25.8348808c1.129392 1.0804835 3.161653 1.2227032 4.553604.5733835" stroke="#906b32" stroke-linecap="round" stroke-linejoin="round" stroke-width="3.709"/><path d="m148.57452 145.783861s-.92668-.92668-7.413442-3.706721-4.633401-5.251188-10.81127-4.942295c-6.177868.308894-15.753565 1.544467-14.826884 3.706721.927323 2.162254.025741 2.014243.927323 2.162254 4.06581.667982 8.957266-2.78004 11.11952 0 2.162254 2.780041-1.544467 1.544467 3.397828 5.251189 4.942295 3.706721 5.868975 5.560081 9.266803 5.560081 3.397827 0 9.266802.308894 9.266802.308894z" fill="#cb9e5f"/><path d="m229.683563 166.221022 52.313032 11.476035s-10.275854 22.56016-39.030615 23.428923c-13.189749.3977-50.658522 4.323864-50.658522 4.323864l3.296794 10.685782-34.251776 2.663562-7.038265-21.997716s-3.088935-8.95791 3.397827-13.900205c6.486762-4.942294 71.971525-16.680245 71.971525-16.680245" fill="#c1a77e"/><path d="m229.492821 79.514123s-30.271556 51.584559-39.846608 54.982386c-9.575696 3.397828-42.627293 7.722336-42.627293 7.722336s1.544467 3.706721 1.544467 7.413442v3.706721l53.129026.308894s30.271556-25.638155 32.742703-23.167007c2.471147 2.471147 5.868975 20.386966 4.015615 25.947048-1.853361 5.560081-6.795656 8.031229-3.397828 9.884589 3.397828 1.853361 47.88556 15.885488 51.283387 12.48766 3.397828-3.397827 4.008536-62.836645-6.49384-82.2969306-10.50302-19.4602858-21.004753-24.7114741-36.758318-24.7114741-9.348531 0-13.591311 7.7223357-13.591311 7.7223357" fill="#85d0ac"/><path d="m73.6443757 92.4866816s22.8349465 1.1416186 34.2524193-11.4174733c11.41683-12.5590918 12.939417-41.1021315 21.31236-49.4750739 8.372299-8.3729424 12.976741-11.745029 12.976741-11.745029s13.795309 6.1733639 21.236423 12.8705594c6.43528 5.7917518 11.583504 12.8705595 11.583504 12.8705595s-15.350716 29.3899224-19.917191 38.5241584c-4.567118 9.1335925-22.454621 21.3117153-34.632745 23.9759213-12.178767 2.664206-36.9166253 10.65618-36.9166253 10.65618z" fill="#e4e3e3"/><g fill="#d8bd8b"><path d="m32.8513307 16.424507 11.5185071-4.0870462 40.1278301 109.2369422-11.5185071 4.087046z"/><path d="m42.8835456 71.7861243c0 6.5665594 4.8644279 11.8898228 10.8653263 11.8898228 6.0002548 0 10.8646827-5.3232634 10.8646827-11.8898228s-4.8644279-11.8898228-10.8646827-11.8898228c-6.0008984 0-10.8653263 5.3232634-10.8653263 11.8898228"/><path d="m46.5991474 154.642989h5.2016366v-76.1686142h-5.2016366z"/><path d="m25.7919575 158.730035h47.5586476v-5.572952h-47.5586476z"/><path d="m98.9688101 158.358719h29.7239139v-5.201636h-29.7239139z"/></g><path d="m96.4792578 69.6970394c0 6.6206158-5.3670233 11.9882826-11.9882825 11.9882826-6.6206158 0-11.9882826-5.3676668-11.9882826-11.9882826 0-6.6212592 5.3676668-11.9882825 11.9882826-11.9882825 6.6212592 0 11.9882825 5.3670233 11.9882825 11.9882825" fill="#c6ac83"/><path d="m150.52145 113.273279-4.947443 9.514561 3.424856-.761294.380968 6.850355 5.327768-9.133592-3.805824.76065z" fill="#fffdff"/><path d="m83.2058499 74.7473826c-.3179028.3179028-.8333687.3179028-1.1512715 0l-4.2704517-4.2704516c-.3172592-.3179028-.3172592-.8333687 0-1.1512715.3179029-.3179029.8333688-.3179029 1.1512716 0l4.2704516 4.2704516c.3179028.3179028.3179028.8333687 0 1.1512715" fill="#fff"/><path d="m82.0592761 74.7473826c-.3179028-.3179028-.3179028-.8333687 0-1.1512715l9.0859714-9.0853279c.3179028-.3179028.8333688-.3179028 1.1512716 0 .3172593.3172593.3172593.8327252 0 1.150628l-9.0859714 9.0859714c-.3179029.3179028-.8333688.3179028-1.1512716 0" fill="#fff"/><path d="m188.579437 67.9843541c2.498819 17.1146264-3.960915 32.1763989-16.532234 40.1986179" stroke="#e81e1e" stroke-dasharray="9.037" stroke-linecap="round" stroke-linejoin="round" stroke-width="2.259"/><path d="m176.009276 111.327314-7.433392-.126775.192415-7.060789" stroke="#e81e1e" stroke-linecap="round" stroke-linejoin="round" stroke-width="2.259"/><path d="m125.119084 121.655616c-17.081806-2.715688-29.5334291-13.371867-33.4428615-27.7630832" stroke="#e81e1e" stroke-dasharray="9.037" stroke-linecap="round" stroke-linejoin="round" stroke-width="2.259"/><path d="m87.4934194 96.7373125 2.33665-7.0582147 6.6823945 2.2883854" stroke="#e81e1e" stroke-linecap="round" stroke-linejoin="round" stroke-width="2.259"/><path d="m159.274717 120.694572c0 6.620616-5.367023 11.988282-11.988282 11.988282-6.620616 0-11.988283-5.367666-11.988283-11.988282 0-6.621259 5.367667-11.988283 11.988283-11.988283 6.621259 0 11.988282 5.367024 11.988282 11.988283" fill="#a5a4a4"/><path d="m153.946499 16.7965305c0 6.6206158-5.367024 11.9882826-11.988283 11.9882826-6.620616 0-11.988282-5.3676668-11.988282-11.9882826 0-6.6212593 5.367666-11.98828256 11.988282-11.98828256 6.621259 0 11.988283 5.36702326 11.988283 11.98828256" fill="#ed1c24"/><path d="m136.730838 18.6479605.864902 1.2355737 13.76635-5.0755051z" fill="#fff"/><path d="m135.729123 16.2386561-1.86044 3.428717 17.493665-4.8592797-14.145389-2.2555655z" fill="#fff"/><path d="m135.190812 14.0832235.537989 2.1551752 12.471572-1.1248869z" fill="#fff"/><path d="m88.5083273 53.3998866c5.0439723-16.543817 17.3141197-27.4084997 32.1068977-29.2978979" stroke="#e81e1e" stroke-dasharray="9.037" stroke-linecap="round" stroke-linejoin="round" stroke-width="2.259"/><path d="m118.373946 19.5672402 6.668236 3.2871409-3.187394 6.3033564" stroke="#e81e1e" stroke-linecap="round" stroke-linejoin="round" stroke-width="2.259"/><path d="m152.441995 127.845969h-10.7437v-14.588135h10.7437z" fill="#fff"/><path d="m143.730685 116.297088h6.850355v-.40864h-6.850355z" fill="#dedce3"/><path d="m143.730685 117.448359h6.850355v-.40864h-6.850355z" fill="#dedce3"/><path d="m143.730685 118.599631h6.850355v-.40864h-6.850355z" fill="#dedce3"/><path d="m143.730685 119.750259h6.850355v-.40864h-6.850355z" fill="#dedce3"/><path d="m143.730685 120.90153h3.754342v-.40864h-3.754342z" fill="#dedce3"/><path d="m143.89028 122.904833h.741988v-.741988h-.741988z" stroke="#dedce3" stroke-width=".403"/><path d="m143.89028 124.417767h.741988v-.741987h-.741988z" stroke="#dedce3" stroke-width=".403"/><path d="m143.889637 125.933276h.745205v-.744562h-.745205z" stroke="#dedce3" stroke-width=".403"/><path d="m149.628426 124.551492-.81535.335922.319833-.831438 5.660472-5.661116.495517.495517z" fill="#fc2d2d"/><path d="m144.088358 122.419034.214938.214938.68214-.68214" stroke="#fc2d2d" stroke-width=".241"/><path d="m144.088358 123.935958.214938.214938.68214-.682139" stroke="#fc2d2d" stroke-width=".241"/><path d="m144.088358 125.470643.214938.214939.68214-.68214" stroke="#fc2d2d" stroke-width=".241"/><path d="m162.108686 101.673429h-52.494507v-30.0643392l25.57187-13.8223373 26.922637 13.4774063z" fill="#c6ac83"/><path d="m149.367282 99.0817493h-28.363495c-2.177699 0-3.960271-1.7825725-3.960271-3.9602711v-51.1572561c0-2.1776986 1.782572-3.9602711 3.960271-3.9602711h28.363495c2.178342 0 3.960271 1.7825725 3.960271 3.9602711v51.1572561c0 2.1776986-1.781929 3.9602711-3.960271 3.9602711" fill="#fff"/><path d="m122.411054 45.9814249h24.914185c.6165 0 1.115878.4993777 1.115878 1.1158775v.7805994c0 .6164998-.499378 1.115234-1.115878 1.115234h-24.914185c-.6165 0-1.115234-.4987342-1.115234-1.115234v-.7805994c0-.6164998.498734-1.1158775 1.115234-1.1158775" fill="#ff1d25"/></g><g fill="#ff1d25"><path d="m-1.54704124 5.16238138h30.86424504v-6.73065904h-30.86424504z" mask="url(#a)" transform="translate(120.983258 46.222684)"/><path d="m122.411054 57.2260465h24.914185c.6165 0 1.115878.4993778 1.115878 1.115234v.781243c0 .6158562-.499378 1.115234-1.115878 1.115234h-24.914185c-.6165 0-1.115234-.4993778-1.115234-1.115234v-.781243c0-.6158562.498734-1.115234 1.115234-1.115234"/><path d="m-1.54704124 4.93457248h30.86424504v-6.73065905h-30.86424504z" mask="url(#b)" transform="translate(120.983258 57.162659)"/><path d="m122.411054 62.4094713h24.914185c.6165 0 1.115878.4993777 1.115878 1.115234v.7812429c0 .6158563-.499378 1.115234-1.115878 1.115234h-24.914185c-.6165 0-1.115234-.4993777-1.115234-1.115234v-.7812429c0-.6158563.498734-1.115234 1.115234-1.115234"/><path d="m-1.54704124 4.96996652h30.86424504v-6.73065905h-30.86424504z" mask="url(#c)" transform="translate(120.983258 62.310883)"/><path d="m122.411054 67.592896h24.914185c.6165 0 1.115878.4993777 1.115878 1.1158775v.7805995c0 .6164998-.499378 1.1158775-1.115878 1.1158775h-24.914185c-.6165 0-1.115234-.4993777-1.115234-1.1158775v-.7805995c0-.6164998.498734-1.1158775 1.115234-1.1158775"/><path d="m-1.54704124 5.00536056h30.86424504v-6.73065905h-30.86424504z" mask="url(#d)" transform="translate(120.983258 67.459107)"/><path d="m122.411054 51.5335912h15.989739c.6165 0 1.115878.4993777 1.115878 1.1158775v.7805994c0 .6164998-.499378 1.1158775-1.115878 1.1158775h-15.989739c-.6165 0-1.115234-.4993777-1.115234-1.1158775v-.7805994c0-.6164998.498734-1.1158775 1.115234-1.1158775"/><path d="m-1.54704124 5.03431931h21.93979914v-6.73065904h-21.93979914z" mask="url(#e)" transform="translate(120.983258 51.370907)"/><path d="m131.741309 75.3774608h15.989739c.6165 0 1.115878.4993777 1.115878 1.1158775v.7805995c0 .6164998-.499378 1.1158775-1.115878 1.1158775h-15.989739c-.6165 0-1.115234-.4993777-1.115234-1.1158775v-.7805995c0-.6164998.498734-1.1158775 1.115234-1.1158775"/><path d="m-1.78352634 5.06713924h21.93979914v-6.73065904h-21.93979914z" mask="url(#f)" transform="translate(130.549612 75.181442)"/></g><g transform="translate(14.157615 71.963802)"><path d="m115.527107 5.17422229c0 2.09918824-1.702132 3.80131973-3.80132 3.80131973s-3.800676-1.70213149-3.800676-3.80131973 1.701488-3.80131972 3.800676-3.80131972 3.80132 1.70213148 3.80132 3.80131972" fill="#ff1d25"/><path d="m148.131451 29.5574327h-52.4945069v-29.20008162l26.4200409 15.72331892 26.074466-16.06889344z" fill="#d8bd8b"/><path d="m147.786134 29.9030716h-52.4945071v-.3455745l25.5718711-21.0794022 26.922636 20.3882532z" fill="#c6ac83"/><path d="m220.748949 94.7564691 52.313033 11.4760339s-10.275855 22.560804-39.030615 23.428923c-13.18975.397701-50.658522 4.324508-50.658522 4.324508l3.297437 10.685139-34.25242 2.664205-7.038265-21.99836s-3.088934-8.957909 3.397828-13.900204 71.971524-16.6802449 71.971524-16.6802449" fill="#d8bd8b"/><path d="m227.818231 18.2548936c1.733021 4.1494683 2.332146 8.5981772 2.34759 13.0700531.008366 2.209875-.115835 4.418463-.300527 6.6199722-.151873 1.8018783-.02188 4.3425268-1.378437 5.7344778-.980737 1.0051906.559869 2.5490142 1.541893 1.541893 1.568278-1.6081764 1.702775-3.8701772 1.902269-5.9886713.229096-2.4370404.398987-4.8830903.415075-7.3323577.03089-4.8361127-.548929-9.7340041-2.424813-14.2251858-.228453-.5469988-.720108-.9253932-1.341112-.7612936-.514823.1351409-.989103.7979747-.761938 1.3411123" fill="#6bb994" stroke="#6bb994" stroke-width="1.25"/><path d="m136.036407 83.8290424c12.281088.3526533 24.562176.7053066 36.843264 1.05796 1.178299.034107 2.18156-1.0264271 2.18156-2.1809163 0-1.2098326-.999399-2.1468093-2.18156-2.1809163-12.281088-.3526533-24.562176-.7053067-36.843264-1.05796-1.178299-.034107-2.180916 1.0264271-2.180916 2.1809163 0 1.2098326.998755 2.1468093 2.180916 2.1809163" fill="#878686"/><path d="m219.559323 61.0191592c1.796087-.5270494 3.401689-1.438285 4.819381-2.6513353.405423-.346218.639024-1.0264271.639024-1.541893 0-.5347717-.237462-1.173795-.639024-1.541893-.415719-.3816121-.960787-.6647644-1.541893-.6390233-.193701.0257411-.38676.0521258-.579818.0778669-.369385.103608-.689862.2908746-.962075.5611564-.133853.1139044-.270281.2252348-.40864.3333475.146725-.1132609.294092-.2271654.44146-.3404263-.716246.5508599-1.498133 1.0071213-2.330214 1.3597746.173752-.0733622.347505-.1467244.521257-.2200866-.365524.1525162-.73877.2850829-1.119095.3964133-.531554.1563772-1.021279.5206141-1.303144 1.001973-.273499.4678448-.389334 1.1570633-.220087 1.6808951.171179.5276929.498091 1.0367235 1.002617 1.3031441.514179.2722123 1.108799.3880474 1.680251.2200866" fill="#6bb994"/><g fill="#727272"><path d="m197.431743 136.986255h30.279922c5.962286-1.722725 11.514645-3.730532 16.519363-6.047876 5.975157-2.767814 11.382722-6.024066 16.191163-9.936072h-62.990448c-2.399072 0-4.361833 1.96276-4.361833 4.361189v7.260926c0 2.399072 1.962761 4.361833 4.361833 4.361833"/><path d="m209.571448 84.9255497h-209.50439239c2.75429972 4.5175663 5.87026215 8.7725733 9.31378032 12.7714561h200.19061207z"/></g></g></g></svg>